<svg width="25" height="24" viewBox="0 0 25 24" fill="none" xmlns="http://www.w3.org/2000/svg">
<g clip-path="url(#clip0_845_11430)">
<path fill-rule="evenodd" clip-rule="evenodd" d="M23.4407 20.4497C23.2168 21.0186 22.7 21.8196 21.9671 22.3838C21.544 22.7098 21.0388 23.0213 20.345 23.2268C19.6053 23.446 18.6943 23.5201 17.5603 23.5201H7.19243C6.0586 23.5201 5.14755 23.446 4.40781 23.2268C3.71394 23.0213 3.20889 22.7098 2.78568 22.3838C2.0529 21.8196 1.53603 21.0187 1.31206 20.4497C0.861024 19.3035 0.856445 18.003 0.856445 17.184V6.81598C0.856445 5.99703 0.861024 4.69647 1.31215 3.55029C1.53612 2.98141 2.0529 2.18042 2.78577 1.61621C3.20889 1.29033 3.71404 0.978835 4.40781 0.773276C5.14755 0.554074 6.0586 0.48 7.19243 0.48H17.5604C18.6943 0.48 19.6053 0.554074 20.3451 0.773276C21.0389 0.978835 21.544 1.29042 21.9672 1.61621C22.7 2.18051 23.2169 2.98141 23.4408 3.55029C23.8918 4.69647 23.8964 5.99703 23.8964 6.81598V17.1839C23.8964 18.003 23.8918 19.3035 23.4407 20.4497Z" fill="url(#paint0_linear_845_11430)"/>
<path d="M14.0465 13.723C13.7009 13.3583 13.0936 13.1244 12.3767 13.1244C11.6597 13.1244 11.0524 13.3583 10.7068 13.723C10.5263 13.9134 10.4309 14.1084 10.4009 14.3865C10.3428 14.9248 10.3754 15.3882 10.4385 16.1293C10.4986 16.8355 10.6127 17.7771 10.7615 18.7361C10.8675 19.4187 10.9535 19.787 11.032 20.0509C11.1591 20.4784 11.634 20.8523 12.3767 20.8523C13.1193 20.8523 13.5942 20.4783 13.7213 20.0509C13.7998 19.7871 13.8859 19.4188 13.9918 18.7361C14.1407 17.7771 14.2547 16.8356 14.3148 16.1293C14.3778 15.3882 14.4105 14.9247 14.3523 14.3865C14.3224 14.1084 14.227 13.9135 14.0465 13.723ZM10.4929 10.4749C10.4929 11.5164 11.3372 12.3606 12.3786 12.3606C13.4199 12.3606 14.2641 11.5164 14.2641 10.4749C14.2641 9.43362 13.4199 8.58932 12.3786 8.58932C11.3372 8.58932 10.4929 9.43362 10.4929 10.4749ZM12.3551 3.03355C7.9451 3.04609 4.33166 6.62373 4.277 11.0334C4.23277 14.6055 6.51296 17.6612 9.69707 18.7812C9.77444 18.8084 9.85291 18.7443 9.84064 18.6632C9.79898 18.3859 9.75961 18.1071 9.72335 17.8331C9.71053 17.7362 9.64881 17.6527 9.55926 17.6136C7.04265 16.5141 5.2852 13.99 5.3134 11.0664C5.35039 7.22942 8.4834 4.10145 12.3204 4.07041C16.2428 4.03873 19.4439 7.22036 19.4439 11.1356C19.4439 14.03 17.6942 16.523 15.197 17.6138C15.1077 17.6529 15.0463 17.7367 15.0335 17.8333C14.9974 18.1073 14.958 18.3859 14.9163 18.6631C14.9041 18.7441 14.9826 18.8083 15.0599 18.7811C18.2135 17.6718 20.4805 14.6637 20.4805 11.1356C20.4807 6.66036 16.8334 3.02091 12.3551 3.03355ZM12.2088 6.75073C14.7087 6.65386 16.7734 8.65955 16.7734 11.1383C16.7734 12.399 16.2392 13.5372 15.3855 14.3387C15.3132 14.4066 15.2742 14.5031 15.2799 14.6022C15.2969 14.9038 15.2906 15.1967 15.2706 15.5276C15.2652 15.6157 15.3641 15.6721 15.4369 15.6223C16.8686 14.644 17.8101 12.9992 17.8101 11.1382C17.8101 8.07419 15.2579 5.59493 12.1678 5.7147C9.29594 5.82594 6.99184 8.19376 6.95512 11.0675C6.93095 12.9576 7.87827 14.6319 9.32816 15.6226C9.40095 15.6723 9.49957 15.6157 9.49425 15.5278C9.47411 15.1967 9.46798 14.9037 9.48492 14.6022C9.49041 14.5032 9.45159 14.4068 9.37925 14.3388C8.49896 13.5124 7.95838 12.3279 7.9928 11.0205C8.05342 8.71943 9.90858 6.83983 12.2088 6.75073Z" fill="white"/>
</g>
<defs>
<linearGradient id="paint0_linear_845_11430" x1="12.3764" y1="0.48" x2="12.3764" y2="23.52" gradientUnits="userSpaceOnUse">
<stop stop-color="#F452FF"/>
<stop offset="1" stop-color="#832BC1"/>
</linearGradient>
<clipPath id="clip0_845_11430">
<rect width="24" height="24" fill="white" transform="translate(0.375977)"/>
</clipPath>
</defs>
</svg>
