<svg width="26" height="19" viewBox="0 0 26 19" fill="none" xmlns="http://www.w3.org/2000/svg">
<g clip-path="url(#clip0_845_11424)">
<path d="M24.8343 3.53697C24.5502 2.47095 23.7133 1.63152 22.6505 1.34663C20.7244 0.828865 13.0004 0.828865 13.0004 0.828865C13.0004 0.828865 5.27649 0.828865 3.35025 1.34663C2.28755 1.63152 1.45055 2.47095 1.16653 3.53697C0.650391 5.46902 0.650391 9.5001 0.650391 9.5001C0.650391 9.5001 0.650391 13.5312 1.16653 15.4634C1.45055 16.5293 2.28755 17.3688 3.35025 17.6538C5.27649 18.1714 13.0004 18.1714 13.0004 18.1714C13.0004 18.1714 20.7244 18.1714 22.6505 17.6538C23.7133 17.3688 24.5502 16.5293 24.8343 15.4634C25.3504 13.5312 25.3504 9.5001 25.3504 9.5001C25.3504 9.5001 25.3504 5.46902 24.8343 3.53697Z" fill="#ED1D24"/>
<path d="M10.4736 13.1601L16.9294 9.50029L10.4736 5.84015V13.1601Z" fill="white"/>
</g>
<defs>
<clipPath id="clip0_845_11424">
<rect width="26" height="19" fill="white"/>
</clipPath>
</defs>
</svg>
